<mxfile host="app.diagrams.net" modified="2023-05-15T11:37:29.246Z" agent="Mozilla/5.0 (Windows NT 10.0; Win64; x64) AppleWebKit/537.36 (KHTML, like Gecko) Chrome/111.0.0.0 Safari/537.36" version="21.2.9" etag="K64z0Ljp0Y-My_8FOtoy" type="github">
  <diagram name="Page-1" id="qNDCD06Rn4HyFnO84by8">
    <mxGraphModel>
      <root>
        <mxCell id="0" />
        <mxCell id="1" parent="0" />
      </root>
    </mxGraphModel>
  </diagram>
</mxfile>
